<svg width="69" height="72" viewBox="0 0 69 72" fill="none" xmlns="http://www.w3.org/2000/svg">
<g filter="url(#filter0_dd_2119_1389)">
<rect x="17" y="11" width="35" height="34" rx="17" fill="white"/>
<rect x="14.5" y="8.50003" width="40" height="39" rx="19.5" stroke="white" stroke-width="5"/>
<g filter="url(#filter1_i_2119_1389)">
<path d="M44.1704 15.3349H24.837C23.7325 15.3349 22.837 16.2303 22.837 17.3349V20.3349C22.837 21.4394 23.7325 22.3349 24.837 22.3349H44.1704C45.2749 22.3349 46.1704 21.4394 46.1704 20.3349V17.3349C46.1704 16.2303 45.2749 15.3349 44.1704 15.3349Z" fill="#C4C4C4"/>
</g>
<path fill-rule="evenodd" clip-rule="evenodd" d="M27.483 18.061L29.9844 20.6732H32.5962L28.871 16.6182L27.483 18.061Z" fill="url(#paint0_linear_2119_1389)"/>
<g filter="url(#filter2_d_2119_1389)">
<path fill-rule="evenodd" clip-rule="evenodd" d="M28.1702 18.3349C28.7225 18.3349 29.1702 17.8872 29.1702 17.3349C29.1702 16.7826 28.7225 16.3349 28.1702 16.3349C27.6179 16.3349 27.1702 16.7826 27.1702 17.3349C27.1702 17.8872 27.6179 18.3349 28.1702 18.3349Z" fill="#EFEFEF"/>
</g>
<path fill-rule="evenodd" clip-rule="evenodd" d="M40.1497 18.061L42.6511 20.6732H45.2628L41.5377 16.6182L40.1497 18.061Z" fill="url(#paint1_linear_2119_1389)"/>
<g filter="url(#filter3_d_2119_1389)">
<path fill-rule="evenodd" clip-rule="evenodd" d="M40.8369 18.3349C41.3892 18.3349 41.8369 17.8872 41.8369 17.3349C41.8369 16.7826 41.3892 16.3349 40.8369 16.3349C40.2846 16.3349 39.8369 16.7826 39.8369 17.3349C39.8369 17.8872 40.2846 18.3349 40.8369 18.3349Z" fill="#EFEFEF"/>
</g>
<g filter="url(#filter4_i_2119_1389)">
<path fill-rule="evenodd" clip-rule="evenodd" d="M47.5441 21.335C47.7128 20.2306 46.9317 19.3349 45.7991 19.3349H23.2009C22.0693 19.3349 21.2871 20.2304 21.4559 21.335L22.7805 30.0005L22.0632 38.6651C21.8944 39.7697 23.3671 40.6652 24.4988 40.6652H44.6183C45.7509 40.6652 46.8859 39.7695 46.7171 38.6651L46.2195 30.0007L47.5441 21.335Z" fill="#4687F4"/>
</g>
<g filter="url(#filter5_i_2119_1389)">
<path fill-rule="evenodd" clip-rule="evenodd" d="M23.2009 19.3349H45.7991C46.9317 19.3349 47.7128 20.2306 47.5441 21.335L46.2194 30.0016H22.7806L21.4559 21.335C21.2871 20.2304 22.0693 19.3349 23.2009 19.3349Z" fill="#3866D0"/>
</g>
<path fill-rule="evenodd" clip-rule="evenodd" d="M44.6189 40.6652C45.7515 40.6652 46.8865 39.7695 46.7177 38.6651L46.2159 30.1654H22.7692L32.8939 40.6652H44.6189Z" fill="url(#paint2_linear_2119_1389)"/>
<path fill-rule="evenodd" clip-rule="evenodd" d="M36.1231 25.8684L40.4724 24.206V35.7055H39.1298V26.0643L36.1231 27.1838V25.8684ZM29.6145 29.2606H30.9158C31.5765 29.2606 32.0443 29.0931 32.3192 28.758C32.5941 28.4229 32.7315 27.9561 32.7315 27.3575C32.7315 26.718 32.5752 26.232 32.2625 25.8995C31.9498 25.567 31.4883 25.4007 30.878 25.4007C30.2979 25.4007 29.8326 25.5734 29.4821 25.9187C29.1316 26.264 28.9563 26.7231 28.9563 27.2961H27.5264L27.5112 27.2501C27.486 26.406 27.7874 25.6885 28.4153 25.0976C29.0433 24.5067 29.8642 24.2113 30.878 24.2113C31.8968 24.2113 32.7088 24.4863 33.3141 25.0362C33.9194 25.5862 34.222 26.3702 34.222 27.3882C34.222 27.8486 34.0845 28.3078 33.8096 28.7656C33.5348 29.2235 33.1224 29.5727 32.5727 29.8131C33.2334 30.0331 33.7012 30.3784 33.9761 30.8491C34.251 31.3197 34.3884 31.8466 34.3884 32.4298C34.3884 33.4479 34.0593 34.2485 33.4011 34.8317C32.7429 35.4149 31.9018 35.7065 30.878 35.7065C29.8742 35.7065 29.0433 35.4316 28.3851 34.8816C27.7269 34.3316 27.4104 33.586 27.4356 32.6447L27.4583 32.5987H28.8806C28.8806 33.187 29.0584 33.6551 29.414 34.003C29.7696 34.3508 30.2576 34.5248 30.878 34.5248C31.5084 34.5248 32.0027 34.3508 32.3608 34.003C32.7189 33.6551 32.898 33.1409 32.898 32.4605C32.898 31.7699 32.7391 31.2609 32.4214 30.9335C32.1036 30.6061 31.6017 30.4423 30.9158 30.4423H29.6145V29.2606Z" fill="#EEEEEE"/>
<path fill-rule="evenodd" clip-rule="evenodd" d="M33.0337 30.0025H29.6144V29.2606H30.9157C31.5764 29.2606 32.0442 29.0931 32.3191 28.758C32.594 28.4229 32.7315 27.9561 32.7315 27.3575C32.7315 26.718 32.5751 26.232 32.2624 25.8995C31.9497 25.567 31.4882 25.4007 30.8779 25.4007C30.2978 25.4007 29.8326 25.5734 29.482 25.9187C29.1315 26.264 28.9562 26.7231 28.9562 27.2961H27.5263L27.5112 27.2501C27.4859 26.406 27.7873 25.6885 28.4153 25.0976C29.0432 24.5067 29.8641 24.2113 30.8779 24.2113C31.8967 24.2113 32.7088 24.4863 33.314 25.0362C33.9193 25.5862 34.2219 26.3702 34.2219 27.3882C34.2219 27.8486 34.0844 28.3078 33.8096 28.7656C33.5347 29.2235 33.1223 29.5727 32.5726 29.8131C32.7384 29.8683 32.8922 29.9314 33.0337 30.0025ZM40.4723 29.9967V24.206L36.123 25.8684V27.1838L39.1297 26.0643V29.9967H40.4723Z" fill="#D4D4D4"/>
<g filter="url(#filter6_i_2119_1389)">
<path fill-rule="evenodd" clip-rule="evenodd" d="M24.4993 40.6652H44.6188C45.7514 40.6652 46.8864 39.7695 46.7176 38.6651L46.2199 29.9985H22.7811L22.0637 38.6651C21.8948 39.7697 23.3676 40.6652 24.4993 40.6652Z" fill="black" fill-opacity="0.01"/>
</g>
</g>
<defs>
<filter id="filter0_dd_2119_1389" x="0" y="3.05176e-05" width="69" height="72" filterUnits="userSpaceOnUse" color-interpolation-filters="sRGB">
<feFlood flood-opacity="0" result="BackgroundImageFix"/>
<feColorMatrix in="SourceAlpha" type="matrix" values="0 0 0 0 0 0 0 0 0 0 0 0 0 0 0 0 0 0 127 0" result="hardAlpha"/>
<feOffset/>
<feGaussianBlur stdDeviation="3"/>
<feColorMatrix type="matrix" values="0 0 0 0 0 0 0 0 0 0 0 0 0 0 0 0 0 0 0.07 0"/>
<feBlend mode="normal" in2="BackgroundImageFix" result="effect1_dropShadow_2119_1389"/>
<feColorMatrix in="SourceAlpha" type="matrix" values="0 0 0 0 0 0 0 0 0 0 0 0 0 0 0 0 0 0 127 0" result="hardAlpha"/>
<feMorphology radius="3" operator="erode" in="SourceAlpha" result="effect2_dropShadow_2119_1389"/>
<feOffset dy="10"/>
<feGaussianBlur stdDeviation="7.5"/>
<feColorMatrix type="matrix" values="0 0 0 0 0 0 0 0 0 0 0 0 0 0 0 0 0 0 0.1 0"/>
<feBlend mode="normal" in2="effect1_dropShadow_2119_1389" result="effect2_dropShadow_2119_1389"/>
<feBlend mode="normal" in="SourceGraphic" in2="effect2_dropShadow_2119_1389" result="shape"/>
</filter>
<filter id="filter1_i_2119_1389" x="22.837" y="15.3349" width="23.3333" height="7.625" filterUnits="userSpaceOnUse" color-interpolation-filters="sRGB">
<feFlood flood-opacity="0" result="BackgroundImageFix"/>
<feBlend mode="normal" in="SourceGraphic" in2="BackgroundImageFix" result="shape"/>
<feColorMatrix in="SourceAlpha" type="matrix" values="0 0 0 0 0 0 0 0 0 0 0 0 0 0 0 0 0 0 127 0" result="hardAlpha"/>
<feOffset dy="0.625"/>
<feGaussianBlur stdDeviation="1.25"/>
<feComposite in2="hardAlpha" operator="arithmetic" k2="-1" k3="1"/>
<feColorMatrix type="matrix" values="0 0 0 0 0.792157 0 0 0 0 0.792157 0 0 0 0 0.792157 0 0 0 1 0"/>
<feBlend mode="normal" in2="shape" result="effect1_innerShadow_2119_1389"/>
</filter>
<filter id="filter2_d_2119_1389" x="26.8577" y="16.3349" width="3.25" height="3.25" filterUnits="userSpaceOnUse" color-interpolation-filters="sRGB">
<feFlood flood-opacity="0" result="BackgroundImageFix"/>
<feColorMatrix in="SourceAlpha" type="matrix" values="0 0 0 0 0 0 0 0 0 0 0 0 0 0 0 0 0 0 127 0" result="hardAlpha"/>
<feOffset dx="0.3125" dy="0.625"/>
<feGaussianBlur stdDeviation="0.3125"/>
<feColorMatrix type="matrix" values="0 0 0 0 0 0 0 0 0 0 0 0 0 0 0 0 0 0 0.1 0"/>
<feBlend mode="normal" in2="BackgroundImageFix" result="effect1_dropShadow_2119_1389"/>
<feBlend mode="normal" in="SourceGraphic" in2="effect1_dropShadow_2119_1389" result="shape"/>
</filter>
<filter id="filter3_d_2119_1389" x="39.5244" y="16.3349" width="3.25" height="3.25" filterUnits="userSpaceOnUse" color-interpolation-filters="sRGB">
<feFlood flood-opacity="0" result="BackgroundImageFix"/>
<feColorMatrix in="SourceAlpha" type="matrix" values="0 0 0 0 0 0 0 0 0 0 0 0 0 0 0 0 0 0 127 0" result="hardAlpha"/>
<feOffset dx="0.3125" dy="0.625"/>
<feGaussianBlur stdDeviation="0.3125"/>
<feColorMatrix type="matrix" values="0 0 0 0 0 0 0 0 0 0 0 0 0 0 0 0 0 0 0.1 0"/>
<feBlend mode="normal" in2="BackgroundImageFix" result="effect1_dropShadow_2119_1389"/>
<feBlend mode="normal" in="SourceGraphic" in2="effect1_dropShadow_2119_1389" result="shape"/>
</filter>
<filter id="filter4_i_2119_1389" x="21.433" y="18.7099" width="26.134" height="21.9553" filterUnits="userSpaceOnUse" color-interpolation-filters="sRGB">
<feFlood flood-opacity="0" result="BackgroundImageFix"/>
<feBlend mode="normal" in="SourceGraphic" in2="BackgroundImageFix" result="shape"/>
<feColorMatrix in="SourceAlpha" type="matrix" values="0 0 0 0 0 0 0 0 0 0 0 0 0 0 0 0 0 0 127 0" result="hardAlpha"/>
<feOffset dy="-0.625"/>
<feGaussianBlur stdDeviation="1.25"/>
<feComposite in2="hardAlpha" operator="arithmetic" k2="-1" k3="1"/>
<feColorMatrix type="matrix" values="0 0 0 0 0.258824 0 0 0 0 0.494118 0 0 0 0 0.913725 0 0 0 1 0"/>
<feBlend mode="normal" in2="shape" result="effect1_innerShadow_2119_1389"/>
</filter>
<filter id="filter5_i_2119_1389" x="21.433" y="19.3349" width="26.134" height="11.2917" filterUnits="userSpaceOnUse" color-interpolation-filters="sRGB">
<feFlood flood-opacity="0" result="BackgroundImageFix"/>
<feBlend mode="normal" in="SourceGraphic" in2="BackgroundImageFix" result="shape"/>
<feColorMatrix in="SourceAlpha" type="matrix" values="0 0 0 0 0 0 0 0 0 0 0 0 0 0 0 0 0 0 127 0" result="hardAlpha"/>
<feOffset dy="0.625"/>
<feGaussianBlur stdDeviation="1.25"/>
<feComposite in2="hardAlpha" operator="arithmetic" k2="-1" k3="1"/>
<feColorMatrix type="matrix" values="0 0 0 0 0.282353 0 0 0 0 0.45098 0 0 0 0 0.831373 0 0 0 1 0"/>
<feBlend mode="normal" in2="shape" result="effect1_innerShadow_2119_1389"/>
</filter>
<filter id="filter6_i_2119_1389" x="22.0504" y="29.9985" width="24.684" height="10.9792" filterUnits="userSpaceOnUse" color-interpolation-filters="sRGB">
<feFlood flood-opacity="0" result="BackgroundImageFix"/>
<feBlend mode="normal" in="SourceGraphic" in2="BackgroundImageFix" result="shape"/>
<feColorMatrix in="SourceAlpha" type="matrix" values="0 0 0 0 0 0 0 0 0 0 0 0 0 0 0 0 0 0 127 0" result="hardAlpha"/>
<feOffset dy="0.3125"/>
<feGaussianBlur stdDeviation="1.25"/>
<feComposite in2="hardAlpha" operator="arithmetic" k2="-1" k3="1"/>
<feColorMatrix type="matrix" values="0 0 0 0 0.588542 0 0 0 0 0.588542 0 0 0 0 0.588542 0 0 0 0.2 0"/>
<feBlend mode="normal" in2="shape" result="effect1_innerShadow_2119_1389"/>
</filter>
<linearGradient id="paint0_linear_2119_1389" x1="26.3082" y1="18.5291" x2="28.284" y2="22.2028" gradientUnits="userSpaceOnUse">
<stop stop-color="#B0B0B0"/>
<stop offset="1" stop-color="#D8D8D8" stop-opacity="0.01"/>
</linearGradient>
<linearGradient id="paint1_linear_2119_1389" x1="38.9748" y1="18.5291" x2="40.9507" y2="22.2028" gradientUnits="userSpaceOnUse">
<stop stop-color="#B0B0B0"/>
<stop offset="1" stop-color="#D8D8D8" stop-opacity="0.01"/>
</linearGradient>
<linearGradient id="paint2_linear_2119_1389" x1="26.1554" y1="31.3791" x2="27.2748" y2="41.3336" gradientUnits="userSpaceOnUse">
<stop stop-color="#3C78DD"/>
<stop offset="1" stop-color="#4688F4" stop-opacity="0.01"/>
</linearGradient>
</defs>
</svg>
