<svg width="60" height="63" viewBox="0 0 60 63" fill="none" xmlns="http://www.w3.org/2000/svg">
<g filter="url(#filter0_dd_2119_1380)">
<rect x="13" y="9.00003" width="34" height="35" rx="17" fill="white"/>
<rect x="10.5" y="6.50003" width="39" height="40" rx="19.5" stroke="white" stroke-width="5"/>
<path d="M43 13.8333H17C16.0795 13.8333 15.3333 14.5795 15.3333 15.5V37.5C15.3333 38.4205 16.0795 39.1667 17 39.1667H43C43.9205 39.1667 44.6666 38.4205 44.6666 37.5V15.5C44.6666 14.5795 43.9205 13.8333 43 13.8333Z" fill="#F4B401"/>
<path d="M41.9999 16.1667H17.9999V36.8334H41.9999V16.1667Z" fill="#1BA261"/>
<path fill-rule="evenodd" clip-rule="evenodd" d="M35.1676 28.1675C33.4041 28.1675 31.9451 28.8196 31.7024 29.6678H31.6669V31.1723H38.6683V29.6678H38.6329C38.3902 28.8196 36.9312 28.1675 35.1676 28.1675ZM35.1676 27.1673C35.9962 27.1673 36.6679 26.4956 36.6679 25.667C36.6679 24.8384 35.9962 24.1667 35.1676 24.1667C34.339 24.1667 33.6673 24.8384 33.6673 25.667C33.6673 26.4956 34.339 27.1673 35.1676 27.1673Z" fill="white" fill-opacity="0.395777"/>
<path fill-rule="evenodd" clip-rule="evenodd" d="M24.834 28.1675C23.0704 28.1675 21.6114 28.8196 21.3687 29.6678H21.3333V31.1723H28.3347V29.6678H28.2992C28.0566 28.8196 26.5976 28.1675 24.834 28.1675ZM24.834 27.1673C25.6626 27.1673 26.3343 26.4956 26.3343 25.667C26.3343 24.8384 25.6626 24.1667 24.834 24.1667C24.0054 24.1667 23.3337 24.8384 23.3337 25.667C23.3337 26.4956 24.0054 27.1673 24.834 27.1673Z" fill="white" fill-opacity="0.395777"/>
<path fill-rule="evenodd" clip-rule="evenodd" d="M30 27.1667C27.649 27.1667 25.704 28.0359 25.3806 29.1667H25.3333V31.1723H34.6666V29.1667H34.6194C34.2959 28.0359 32.3509 27.1667 30 27.1667ZM30 25.8334C31.1045 25.8334 32 24.9379 32 23.8334C32 22.7288 31.1045 21.8334 30 21.8334C28.8954 21.8334 28 22.7288 28 23.8334C28 24.9379 28.8954 25.8334 30 25.8334Z" fill="#F7F7F7"/>
<path fill-rule="evenodd" clip-rule="evenodd" d="M32.6666 36.5L35.3333 39.1667H41.3333L38.6666 36.5H32.6666Z" fill="url(#paint0_linear_2119_1380)" fill-opacity="0.6"/>
<g filter="url(#filter1_d_2119_1380)">
<path d="M38.6666 35.1667H32.6666V36.5001H38.6666V35.1667Z" fill="#F1F1F1"/>
</g>
</g>
<defs>
<filter id="filter0_dd_2119_1380" x="0.5" y="0.250031" width="59" height="62.5" filterUnits="userSpaceOnUse" color-interpolation-filters="sRGB">
<feFlood flood-opacity="0" result="BackgroundImageFix"/>
<feColorMatrix in="SourceAlpha" type="matrix" values="0 0 0 0 0 0 0 0 0 0 0 0 0 0 0 0 0 0 127 0" result="hardAlpha"/>
<feOffset/>
<feGaussianBlur stdDeviation="1.875"/>
<feColorMatrix type="matrix" values="0 0 0 0 0 0 0 0 0 0 0 0 0 0 0 0 0 0 0.07 0"/>
<feBlend mode="normal" in2="BackgroundImageFix" result="effect1_dropShadow_2119_1380"/>
<feColorMatrix in="SourceAlpha" type="matrix" values="0 0 0 0 0 0 0 0 0 0 0 0 0 0 0 0 0 0 127 0" result="hardAlpha"/>
<feMorphology radius="1.875" operator="erode" in="SourceAlpha" result="effect2_dropShadow_2119_1380"/>
<feOffset dy="6.25"/>
<feGaussianBlur stdDeviation="4.6875"/>
<feColorMatrix type="matrix" values="0 0 0 0 0 0 0 0 0 0 0 0 0 0 0 0 0 0 0.1 0"/>
<feBlend mode="normal" in2="effect1_dropShadow_2119_1380" result="effect2_dropShadow_2119_1380"/>
<feBlend mode="normal" in="SourceGraphic" in2="effect2_dropShadow_2119_1380" result="shape"/>
</filter>
<filter id="filter1_d_2119_1380" x="30.1666" y="32.0417" width="11" height="6.33334" filterUnits="userSpaceOnUse" color-interpolation-filters="sRGB">
<feFlood flood-opacity="0" result="BackgroundImageFix"/>
<feColorMatrix in="SourceAlpha" type="matrix" values="0 0 0 0 0 0 0 0 0 0 0 0 0 0 0 0 0 0 127 0" result="hardAlpha"/>
<feOffset dy="-0.625"/>
<feGaussianBlur stdDeviation="1.25"/>
<feColorMatrix type="matrix" values="0 0 0 0 0.0784314 0 0 0 0 0.592157 0 0 0 0 0.34902 0 0 0 1 0"/>
<feBlend mode="normal" in2="BackgroundImageFix" result="effect1_dropShadow_2119_1380"/>
<feBlend mode="normal" in="SourceGraphic" in2="effect1_dropShadow_2119_1380" result="shape"/>
</filter>
<linearGradient id="paint0_linear_2119_1380" x1="29.7395" y1="34.7732" x2="29.7395" y2="39.4608" gradientUnits="userSpaceOnUse">
<stop stop-color="#C26003"/>
<stop offset="1" stop-color="#F4B401" stop-opacity="0.513842"/>
</linearGradient>
</defs>
</svg>
