<svg width="52" height="54" viewBox="0 0 52 54" fill="none" xmlns="http://www.w3.org/2000/svg">
<g filter="url(#filter0_dd_2119_1393)">
<rect x="15" y="9.00003" width="22" height="20" rx="10" fill="white"/>
<rect x="13.5" y="7.50003" width="25" height="23" rx="11.5" stroke="white" stroke-width="3"/>
<path fill-rule="evenodd" clip-rule="evenodd" d="M26 29C31.5228 29 36 24.5229 36 19C36 13.4772 31.5228 9.00003 26 9.00003C20.4772 9.00003 16 13.4772 16 19C16 24.5229 20.4772 29 26 29Z" fill="url(#paint0_linear_2119_1393)"/>
<path fill-rule="evenodd" clip-rule="evenodd" d="M19.4 23.9L21.3 25.1L23.7 21L27.2 23.1L30.3 17.5L32.5 18.8L31.7 13L26.3 15.2L28.4 16.4L26.4 20L22.9 17.9L19.4 23.9Z" fill="white"/>
</g>
<defs>
<filter id="filter0_dd_2119_1393" x="0" y="3.05176e-05" width="52" height="54" filterUnits="userSpaceOnUse" color-interpolation-filters="sRGB">
<feFlood flood-opacity="0" result="BackgroundImageFix"/>
<feColorMatrix in="SourceAlpha" type="matrix" values="0 0 0 0 0 0 0 0 0 0 0 0 0 0 0 0 0 0 127 0" result="hardAlpha"/>
<feOffset/>
<feGaussianBlur stdDeviation="3"/>
<feColorMatrix type="matrix" values="0 0 0 0 0 0 0 0 0 0 0 0 0 0 0 0 0 0 0.07 0"/>
<feBlend mode="normal" in2="BackgroundImageFix" result="effect1_dropShadow_2119_1393"/>
<feColorMatrix in="SourceAlpha" type="matrix" values="0 0 0 0 0 0 0 0 0 0 0 0 0 0 0 0 0 0 127 0" result="hardAlpha"/>
<feMorphology radius="3" operator="erode" in="SourceAlpha" result="effect2_dropShadow_2119_1393"/>
<feOffset dy="10"/>
<feGaussianBlur stdDeviation="7.5"/>
<feColorMatrix type="matrix" values="0 0 0 0 0 0 0 0 0 0 0 0 0 0 0 0 0 0 0.1 0"/>
<feBlend mode="normal" in2="effect1_dropShadow_2119_1393" result="effect2_dropShadow_2119_1393"/>
<feBlend mode="normal" in="SourceGraphic" in2="effect2_dropShadow_2119_1393" result="shape"/>
</filter>
<linearGradient id="paint0_linear_2119_1393" x1="16" y1="9.00003" x2="16" y2="29" gradientUnits="userSpaceOnUse">
<stop stop-color="#E8016A"/>
<stop offset="1" stop-color="#EE3224"/>
</linearGradient>
</defs>
</svg>
