<svg width="38" height="39" viewBox="0 0 38 39" fill="none" xmlns="http://www.w3.org/2000/svg">
<g filter="url(#filter0_dd_2119_1386)">
<rect x="8" y="6.00003" width="22" height="21" rx="10.5" fill="white"/>
<rect x="6.5" y="4.50003" width="25" height="24" rx="12" stroke="white" stroke-width="3"/>
<path d="M27.2125 10.2H10.7875C10.3526 10.2 10 10.5526 10 10.9875V22.0125C10 22.4475 10.3526 22.8 10.7875 22.8H27.2125C27.6474 22.8 28 22.4475 28 22.0125V10.9875C28 10.5526 27.6474 10.2 27.2125 10.2Z" fill="#5AC4FE"/>
<mask id="mask0_2119_1386" style="mask-type:alpha" maskUnits="userSpaceOnUse" x="10" y="10" width="18" height="13">
<path d="M27.2125 10.2H10.7875C10.3526 10.2 10 10.5526 10 10.9875V22.0125C10 22.4475 10.3526 22.8 10.7875 22.8H27.2125C27.6474 22.8 28 22.4475 28 22.0125V10.9875C28 10.5526 27.6474 10.2 27.2125 10.2Z" fill="white"/>
</mask>
<g mask="url(#mask0_2119_1386)">
<path fill-rule="evenodd" clip-rule="evenodd" d="M8.99127 24.022L18.9733 14.3807L28.9554 24.022H8.99127Z" fill="#5B95FF"/>
<path fill-rule="evenodd" clip-rule="evenodd" d="M9.74353 10.1261L18.9962 21.1591L28.3053 10.1261H9.74353Z" fill="url(#paint0_linear_2119_1386)"/>
<path fill-rule="evenodd" clip-rule="evenodd" d="M9.91772 10.3707L19.0063 19.0776L28.9903 9.55698L10.0834 9.66138L9.91772 10.3707Z" fill="url(#paint1_linear_2119_1386)"/>
</g>
</g>
<defs>
<filter id="filter0_dd_2119_1386" x="0.5" y="0.750031" width="37" height="37.5" filterUnits="userSpaceOnUse" color-interpolation-filters="sRGB">
<feFlood flood-opacity="0" result="BackgroundImageFix"/>
<feColorMatrix in="SourceAlpha" type="matrix" values="0 0 0 0 0 0 0 0 0 0 0 0 0 0 0 0 0 0 127 0" result="hardAlpha"/>
<feOffset/>
<feGaussianBlur stdDeviation="1.125"/>
<feColorMatrix type="matrix" values="0 0 0 0 0 0 0 0 0 0 0 0 0 0 0 0 0 0 0.07 0"/>
<feBlend mode="normal" in2="BackgroundImageFix" result="effect1_dropShadow_2119_1386"/>
<feColorMatrix in="SourceAlpha" type="matrix" values="0 0 0 0 0 0 0 0 0 0 0 0 0 0 0 0 0 0 127 0" result="hardAlpha"/>
<feMorphology radius="1.125" operator="erode" in="SourceAlpha" result="effect2_dropShadow_2119_1386"/>
<feOffset dy="3.75"/>
<feGaussianBlur stdDeviation="2.8125"/>
<feColorMatrix type="matrix" values="0 0 0 0 0 0 0 0 0 0 0 0 0 0 0 0 0 0 0.1 0"/>
<feBlend mode="normal" in2="effect1_dropShadow_2119_1386" result="effect2_dropShadow_2119_1386"/>
<feBlend mode="normal" in="SourceGraphic" in2="effect2_dropShadow_2119_1386" result="shape"/>
</filter>
<linearGradient id="paint0_linear_2119_1386" x1="9.74353" y1="10.1261" x2="9.74353" y2="21.1591" gradientUnits="userSpaceOnUse">
<stop stop-opacity="0.194973"/>
<stop offset="1" stop-opacity="0.194973"/>
</linearGradient>
<linearGradient id="paint1_linear_2119_1386" x1="10.6833" y1="10.3213" x2="10.6833" y2="19.0776" gradientUnits="userSpaceOnUse">
<stop stop-color="#94F0FF"/>
<stop offset="1" stop-color="#94F0FF"/>
</linearGradient>
</defs>
</svg>
