<svg width="47" height="55" viewBox="0 0 47 55" fill="none" xmlns="http://www.w3.org/2000/svg">
<g filter="url(#filter0_dd_2119_1391)">
<rect x="15" y="9.00003" width="21" height="21" rx="10.5" fill="white"/>
<rect x="13.5" y="7.50003" width="24" height="24" rx="12" stroke="white" stroke-width="3"/>
<path fill-rule="evenodd" clip-rule="evenodd" d="M22.1634 23.6982C22.1634 23.6982 23.3596 22.3774 25.3532 22.3774C27.3468 22.3774 28.695 23.6982 28.695 23.6982L25.4292 27.2699L22.1634 23.6982ZM20.3381 21.9359C20.3381 21.9359 22.4423 19.8277 25.4291 19.8081C28.4159 19.7883 30.5831 21.9359 30.5831 21.9359L32.4745 19.8079C32.4745 19.8079 29.4365 16.9907 25.4291 17.0103C21.4217 17.0301 18.3679 19.9263 18.3679 19.9263L20.3381 21.9359ZM16.7523 17.9758C16.7523 17.9758 20.6691 14.5082 25.4291 14.5082C30.1891 14.5082 34.1295 17.9758 34.1295 17.9758L36.0209 15.907C36.0209 15.907 31.3515 11.7106 25.4213 11.7302C19.4909 11.75 14.9791 15.9662 14.9791 15.9662L16.7523 17.9758Z" fill="url(#paint0_linear_2119_1391)"/>
</g>
<defs>
<filter id="filter0_dd_2119_1391" x="0" y="3.05176e-05" width="51" height="55" filterUnits="userSpaceOnUse" color-interpolation-filters="sRGB">
<feFlood flood-opacity="0" result="BackgroundImageFix"/>
<feColorMatrix in="SourceAlpha" type="matrix" values="0 0 0 0 0 0 0 0 0 0 0 0 0 0 0 0 0 0 127 0" result="hardAlpha"/>
<feOffset/>
<feGaussianBlur stdDeviation="3"/>
<feColorMatrix type="matrix" values="0 0 0 0 0 0 0 0 0 0 0 0 0 0 0 0 0 0 0.07 0"/>
<feBlend mode="normal" in2="BackgroundImageFix" result="effect1_dropShadow_2119_1391"/>
<feColorMatrix in="SourceAlpha" type="matrix" values="0 0 0 0 0 0 0 0 0 0 0 0 0 0 0 0 0 0 127 0" result="hardAlpha"/>
<feMorphology radius="3" operator="erode" in="SourceAlpha" result="effect2_dropShadow_2119_1391"/>
<feOffset dy="10"/>
<feGaussianBlur stdDeviation="7.5"/>
<feColorMatrix type="matrix" values="0 0 0 0 0 0 0 0 0 0 0 0 0 0 0 0 0 0 0.1 0"/>
<feBlend mode="normal" in2="effect1_dropShadow_2119_1391" result="effect2_dropShadow_2119_1391"/>
<feBlend mode="normal" in="SourceGraphic" in2="effect2_dropShadow_2119_1391" result="shape"/>
</filter>
<linearGradient id="paint0_linear_2119_1391" x1="14.9791" y1="11.7301" x2="14.9791" y2="27.2699" gradientUnits="userSpaceOnUse">
<stop stop-color="#19DEFE"/>
<stop offset="1" stop-color="#1E5BEF"/>
</linearGradient>
</defs>
</svg>
