<svg width="69" height="72" viewBox="0 0 69 72" fill="none" xmlns="http://www.w3.org/2000/svg">
<g filter="url(#filter0_dd_2119_1385)">
<rect x="17" y="11" width="35" height="34" rx="17" fill="white"/>
<rect x="14.5" y="8.50003" width="40" height="39" rx="19.5" stroke="white" stroke-width="5"/>
<path d="M22.3696 32.6659V33.9932C22.3697 34.275 22.4379 34.5527 22.5683 34.8025C22.6988 35.0525 22.8877 35.267 23.119 35.4283L28.3797 30.1674L26.9212 28.7089C26.8822 28.6699 26.8359 28.639 26.7849 28.6179C26.7339 28.5967 26.6793 28.5859 26.6241 28.5859C26.5689 28.5859 26.5143 28.5967 26.4633 28.6179C26.4123 28.639 26.366 28.6699 26.327 28.7089L22.3696 32.6659Z" fill="url(#paint0_linear_2119_1385)"/>
<path d="M26.6237 26.9868C26.8 26.9864 26.9747 27.0208 27.1376 27.0884C27.3006 27.1559 27.4485 27.2551 27.5728 27.3801L29.3693 29.1766L33.0579 25.488C33.4405 25.1061 33.959 24.8915 34.4996 24.8915C35.0402 24.8915 35.5588 25.1061 35.9413 25.488L41.0701 30.6168L42.6553 29.0317C42.9073 28.7803 43.2484 28.6391 43.6044 28.6391C43.9603 28.6391 44.3016 28.7803 44.5534 29.0317L46.6298 31.1097V22.0076C46.6298 21.7003 46.5489 21.3983 46.395 21.1322C46.2414 20.866 46.0203 20.645 45.7542 20.4913L35.3751 14.4988C35.1089 14.3451 34.8068 14.2642 34.4995 14.2642C34.1921 14.2642 33.8901 14.3451 33.6238 14.4988L23.2446 20.4913C22.9784 20.645 22.7574 20.866 22.6037 21.1322C22.45 21.3983 22.369 21.7003 22.369 22.0076V30.6849L25.6739 27.3799C25.7984 27.2548 25.9464 27.1556 26.1094 27.0883C26.2724 27.0208 26.4472 26.9862 26.6237 26.9868Z" fill="url(#paint1_linear_2119_1385)"/>
<path d="M42.0603 31.6079L45.8798 35.4281C46.111 35.2669 46.2999 35.0522 46.4303 34.8024C46.5608 34.5525 46.6289 34.2749 46.629 33.993V33.0903L43.9003 30.3615C43.8215 30.2827 43.7146 30.2385 43.6032 30.2385C43.4916 30.2385 43.3847 30.2827 43.3059 30.3615L42.0603 31.6079Z" fill="url(#paint2_linear_2119_1385)"/>
<path d="M41.0698 32.598L40.0796 31.6079L34.9508 26.4793C34.8311 26.3597 34.669 26.2926 34.4998 26.2926C34.3307 26.2926 34.1685 26.3597 34.0488 26.4793L30.3602 30.1678L29.3699 31.1582L24.3694 36.1581L33.6237 41.5014C33.8899 41.6551 34.1919 41.736 34.4993 41.736C34.8066 41.736 35.1087 41.6551 35.3749 41.5014L44.6291 36.1581L41.0698 32.598Z" fill="url(#paint3_linear_2119_1385)"/>
<path d="M34.4998 12.6546C34.8431 12.6545 35.1805 12.7449 35.4777 12.9165L47.0734 19.6113C47.3708 19.783 47.6176 20.0299 47.7892 20.3273C47.9609 20.6247 48.0513 20.962 48.0513 21.3053V34.6949C48.0513 35.0382 47.9609 35.3754 47.7892 35.6728C47.6176 35.9701 47.3708 36.2171 47.0734 36.3887L35.4777 43.0835C35.1803 43.2552 34.8431 43.3456 34.4997 43.3456C34.1563 43.3456 33.819 43.2552 33.5217 43.0835L21.926 36.3887C21.6287 36.2171 21.3818 35.9701 21.2101 35.6728C21.0384 35.3754 20.9481 35.0382 20.9481 34.6949V21.3053C20.9481 20.962 21.0384 20.6247 21.2101 20.3273C21.3818 20.0299 21.6287 19.783 21.926 19.6113L33.5217 12.9165C33.819 12.7449 34.1564 12.6545 34.4998 12.6546ZM34.4998 11.2065C33.9023 11.2068 33.3153 11.3641 32.7978 11.6626L21.202 18.3574C20.6852 18.6569 20.256 19.0867 19.9573 19.604C19.6586 20.1214 19.5009 20.708 19.5 21.3053V34.6949C19.501 35.2923 19.6587 35.8789 19.9574 36.3961C20.2561 36.9135 20.6853 37.3433 21.2022 37.6428L32.7978 44.3376C33.3153 44.6364 33.9023 44.7935 34.4998 44.7935C35.0973 44.7935 35.6843 44.6364 36.2018 44.3376L47.7974 37.6428C48.3143 37.3435 48.7437 36.9135 49.0424 36.3963C49.3412 35.8789 49.4989 35.2923 49.5 34.6949V21.3053C49.4991 20.708 49.3413 20.1214 49.0427 19.6041C48.744 19.0868 48.3148 18.6569 47.798 18.3574L36.2024 11.6626C35.6849 11.3641 35.0979 11.2068 34.5004 11.2065H34.4998Z" fill="url(#paint4_linear_2119_1385)"/>
</g>
<defs>
<filter id="filter0_dd_2119_1385" x="0" y="3.05176e-05" width="69" height="72" filterUnits="userSpaceOnUse" color-interpolation-filters="sRGB">
<feFlood flood-opacity="0" result="BackgroundImageFix"/>
<feColorMatrix in="SourceAlpha" type="matrix" values="0 0 0 0 0 0 0 0 0 0 0 0 0 0 0 0 0 0 127 0" result="hardAlpha"/>
<feOffset/>
<feGaussianBlur stdDeviation="3"/>
<feColorMatrix type="matrix" values="0 0 0 0 0 0 0 0 0 0 0 0 0 0 0 0 0 0 0.07 0"/>
<feBlend mode="normal" in2="BackgroundImageFix" result="effect1_dropShadow_2119_1385"/>
<feColorMatrix in="SourceAlpha" type="matrix" values="0 0 0 0 0 0 0 0 0 0 0 0 0 0 0 0 0 0 127 0" result="hardAlpha"/>
<feMorphology radius="3" operator="erode" in="SourceAlpha" result="effect2_dropShadow_2119_1385"/>
<feOffset dy="10"/>
<feGaussianBlur stdDeviation="7.5"/>
<feColorMatrix type="matrix" values="0 0 0 0 0 0 0 0 0 0 0 0 0 0 0 0 0 0 0.1 0"/>
<feBlend mode="normal" in2="effect1_dropShadow_2119_1385" result="effect2_dropShadow_2119_1385"/>
<feBlend mode="normal" in="SourceGraphic" in2="effect2_dropShadow_2119_1385" result="shape"/>
</filter>
<linearGradient id="paint0_linear_2119_1385" x1="25.3746" y1="14.4767" x2="25.3746" y2="41.8465" gradientUnits="userSpaceOnUse">
<stop offset="0.004" stop-color="#4C99D4"/>
<stop offset="0.5" stop-color="#56C3E6"/>
<stop offset="1" stop-color="#B0D8BC"/>
</linearGradient>
<linearGradient id="paint1_linear_2119_1385" x1="34.4994" y1="14.4832" x2="34.4994" y2="41.8572" gradientUnits="userSpaceOnUse">
<stop offset="0.004" stop-color="#4C99D4"/>
<stop offset="0.5" stop-color="#56C3E6"/>
<stop offset="1" stop-color="#B0D8BC"/>
</linearGradient>
<linearGradient id="paint2_linear_2119_1385" x1="44.3447" y1="14.4774" x2="44.3447" y2="41.8479" gradientUnits="userSpaceOnUse">
<stop offset="0.004" stop-color="#4C99D4"/>
<stop offset="0.5" stop-color="#56C3E6"/>
<stop offset="1" stop-color="#B0D8BC"/>
</linearGradient>
<linearGradient id="paint3_linear_2119_1385" x1="34.4993" y1="14.4785" x2="34.4993" y2="41.8441" gradientUnits="userSpaceOnUse">
<stop offset="0.004" stop-color="#4C99D4"/>
<stop offset="0.5" stop-color="#56C3E6"/>
<stop offset="1" stop-color="#B0D8BC"/>
</linearGradient>
<linearGradient id="paint4_linear_2119_1385" x1="34.5" y1="44.7935" x2="34.5" y2="11.2065" gradientUnits="userSpaceOnUse">
<stop stop-color="#B0D8BC"/>
<stop offset="0.5" stop-color="#56C3E6"/>
<stop offset="0.996" stop-color="#4C99D4"/>
</linearGradient>
</defs>
</svg>
